<svg width="200" height="30" viewBox="0 0 234 50" fill="none" xmlns="http://www.w3.org/2000/svg">
<path d="M0 5.5C0 2.46243 2.46243 0 5.5 0H49.5C52.5376 0 55 2.46243 55 5.5C55 8.53757 52.5376 11 49.5 11H5.5C2.46244 11 0 8.53757 0 5.5Z" fill="#D9D9D9"/>
<path d="M0 18.5C0 15.4624 2.46243 13 5.5 13H53.5C56.5376 13 59 15.4624 59 18.5C59 21.5376 56.5376 24 53.5 24H5.5C2.46244 24 0 21.5376 0 18.5Z" fill="#D9D9D9"/>
<path d="M0 31.5C0 28.4624 2.46243 26 5.5 26H53.5C56.5376 26 59 28.4624 59 31.5C59 34.5376 56.5376 37 53.5 37H5.5C2.46244 37 0 34.5376 0 31.5Z" fill="#D9D9D9"/>
<path d="M0 44.5C0 41.4624 2.46243 39 5.5 39H19.5C22.5376 39 25 41.4624 25 44.5C25 47.5376 22.5376 50 19.5 50H5.5C2.46244 50 0 47.5376 0 44.5Z" fill="#D9D9D9"/>
<path d="M87.46 22.516C86.764 23.236 86.416 24.1 86.416 25.108C86.416 26.116 86.764 26.98 87.46 27.7C88.18 28.42 89.032 28.78 90.016 28.78C91.024 28.78 91.876 28.42 92.572 27.7C93.268 26.98 93.616 26.116 93.616 25.108C93.616 24.1 93.268 23.236 92.572 22.516C91.876 21.796 91.024 21.436 90.016 21.436C89.032 21.436 88.18 21.796 87.46 22.516ZM86.38 17.008V17.512C87.532 16.264 89.14 15.64 91.204 15.64C93.556 15.64 95.584 16.504 97.288 18.232C99.016 19.936 99.88 22.204 99.88 25.036C99.88 27.868 99.016 30.16 97.288 31.912C95.584 33.664 93.52 34.54 91.096 34.54C90.184 34.54 89.272 34.396 88.36 34.108C87.472 33.844 86.812 33.436 86.38 32.884V41.164C86.38 41.404 86.296 41.596 86.128 41.74C85.984 41.908 85.792 41.992 85.552 41.992H81.052C80.812 41.992 80.608 41.908 80.44 41.74C80.296 41.596 80.224 41.404 80.224 41.164V17.008C80.224 16.768 80.296 16.576 80.44 16.432C80.608 16.264 80.812 16.18 81.052 16.18H85.552C85.768 16.18 85.96 16.264 86.128 16.432C86.296 16.576 86.38 16.768 86.38 17.008Z" fill="#D9D9D9"/>
<path d="M108.364 22.516C107.668 23.236 107.32 24.1 107.32 25.108C107.32 26.116 107.668 26.98 108.364 27.7C109.084 28.42 109.936 28.78 110.92 28.78C111.928 28.78 112.78 28.42 113.476 27.7C114.172 26.98 114.52 26.116 114.52 25.108C114.52 24.1 114.172 23.236 113.476 22.516C112.78 21.796 111.928 21.436 110.92 21.436C109.936 21.436 109.084 21.796 108.364 22.516ZM103.72 31.912C101.944 30.136 101.056 27.844 101.056 25.036C101.056 22.228 101.944 19.96 103.72 18.232C105.496 16.504 107.584 15.64 109.984 15.64C112.168 15.64 113.692 16.276 114.556 17.548V17.008C114.556 16.768 114.64 16.576 114.808 16.432C114.976 16.264 115.168 16.18 115.384 16.18H119.884C120.124 16.18 120.316 16.264 120.46 16.432C120.628 16.576 120.712 16.768 120.712 17.008V33.172C120.712 33.412 120.628 33.616 120.46 33.784C120.316 33.928 120.124 34 119.884 34H115.384C115.144 34 114.94 33.928 114.772 33.784C114.628 33.616 114.556 33.412 114.556 33.172V32.632C113.692 33.904 112.156 34.54 109.948 34.54C107.572 34.54 105.496 33.664 103.72 31.912Z" fill="#D9D9D9"/>
<path d="M128.226 42.532C125.97 42.532 124.062 41.896 122.502 40.624C122.022 40.24 121.986 39.736 122.394 39.112L123.942 36.628C124.422 35.884 125.034 35.776 125.778 36.304C126.498 36.832 127.182 37.096 127.83 37.096C128.814 37.096 129.474 36.664 129.81 35.8L130.422 34H128.154C127.602 34 127.242 33.712 127.074 33.136L122.142 17.584C121.806 16.648 122.13 16.18 123.114 16.18H128.298C128.73 16.18 129.018 16.468 129.162 17.044L132.186 28.204L134.85 17.044C134.994 16.468 135.342 16.18 135.894 16.18H140.61C141.402 16.18 141.666 16.648 141.402 17.584L135.93 36.412C135.354 38.356 134.418 39.856 133.122 40.912C131.826 41.992 130.194 42.532 128.226 42.532Z" fill="#D9D9D9"/>
<path d="M149.799 15.64C151.527 15.64 153.039 15.88 154.335 16.36C155.655 16.816 156.639 17.332 157.287 17.908C157.935 18.46 157.959 19.072 157.359 19.744L155.703 21.544C155.199 22.072 154.551 22.108 153.759 21.652C152.295 20.812 151.023 20.392 149.943 20.392C149.487 20.392 149.103 20.464 148.791 20.608C148.503 20.752 148.359 20.944 148.359 21.184C148.359 21.448 148.479 21.664 148.719 21.832C148.959 21.976 149.403 22.108 150.051 22.228L152.679 22.768C156.447 23.536 158.331 25.372 158.331 28.276C158.331 30.076 157.587 31.576 156.099 32.776C154.635 33.952 152.631 34.54 150.087 34.54C147.447 34.54 145.215 33.964 143.391 32.812C142.431 32.212 141.855 31.612 141.663 31.012C141.471 30.412 141.651 29.932 142.203 29.572L144.255 28.06C144.927 27.556 145.599 27.592 146.271 28.168C147.567 29.248 148.887 29.788 150.231 29.788C150.759 29.788 151.179 29.692 151.491 29.5C151.803 29.308 151.959 29.092 151.959 28.852C151.959 28.54 151.803 28.3 151.491 28.132C151.179 27.94 150.639 27.772 149.871 27.628L146.847 26.98C143.583 26.236 141.951 24.46 141.951 21.652C141.951 19.948 142.647 18.52 144.039 17.368C145.455 16.216 147.375 15.64 149.799 15.64Z" fill="#D9D9D9"/>
<path d="M161.796 28.564V21.328H159.6C159.36 21.328 159.156 21.244 158.988 21.076C158.844 20.908 158.772 20.704 158.772 20.464V17.008C158.772 16.768 158.844 16.576 158.988 16.432C159.156 16.264 159.36 16.18 159.6 16.18H161.796V11.788C161.796 11.548 161.88 11.356 162.048 11.212C162.216 11.044 162.42 10.96 162.66 10.96H167.196C167.436 10.96 167.628 11.044 167.772 11.212C167.94 11.356 168.024 11.548 168.024 11.788V16.18H172.848C173.088 16.18 173.292 16.264 173.46 16.432C173.628 16.576 173.712 16.768 173.712 17.008V20.464C173.712 20.704 173.628 20.908 173.46 21.076C173.292 21.244 173.088 21.328 172.848 21.328H168.024V27.016C168.024 28.12 168.492 28.672 169.428 28.672C169.908 28.672 170.388 28.504 170.868 28.168C171.564 27.712 172.104 27.772 172.488 28.348L174.036 30.832C174.396 31.384 174.36 31.876 173.928 32.308C172.632 33.748 170.736 34.468 168.24 34.468C166.44 34.468 164.916 33.976 163.668 32.992C162.42 32.008 161.796 30.532 161.796 28.564Z" fill="#D9D9D9"/>
<path d="M181.806 22.516C181.11 23.236 180.762 24.1 180.762 25.108C180.762 26.116 181.11 26.98 181.806 27.7C182.526 28.42 183.378 28.78 184.362 28.78C185.37 28.78 186.222 28.42 186.918 27.7C187.614 26.98 187.962 26.116 187.962 25.108C187.962 24.1 187.614 23.236 186.918 22.516C186.222 21.796 185.37 21.436 184.362 21.436C183.378 21.436 182.526 21.796 181.806 22.516ZM177.162 31.912C175.386 30.136 174.498 27.844 174.498 25.036C174.498 22.228 175.386 19.96 177.162 18.232C178.938 16.504 181.026 15.64 183.426 15.64C185.61 15.64 187.134 16.276 187.998 17.548V17.008C187.998 16.768 188.082 16.576 188.25 16.432C188.418 16.264 188.61 16.18 188.826 16.18H193.326C193.566 16.18 193.758 16.264 193.902 16.432C194.07 16.576 194.154 16.768 194.154 17.008V33.172C194.154 33.412 194.07 33.616 193.902 33.784C193.758 33.928 193.566 34 193.326 34H188.826C188.586 34 188.382 33.928 188.214 33.784C188.07 33.616 187.998 33.412 187.998 33.172V32.632C187.134 33.904 185.598 34.54 183.39 34.54C181.014 34.54 178.938 33.664 177.162 31.912Z" fill="#D9D9D9"/>
<path d="M213.763 30.544C212.995 31.744 211.903 32.716 210.487 33.46C209.095 34.18 207.487 34.54 205.663 34.54C202.879 34.54 200.563 33.64 198.715 31.84C196.867 30.016 195.943 27.772 195.943 25.108C195.943 22.42 196.867 20.176 198.715 18.376C200.563 16.552 202.879 15.64 205.663 15.64C207.487 15.64 209.095 16.012 210.487 16.756C211.903 17.476 212.995 18.436 213.763 19.636C214.099 20.236 213.943 20.776 213.295 21.256L210.595 23.272C210.019 23.68 209.455 23.572 208.903 22.948C208.039 21.94 206.995 21.436 205.771 21.436C204.739 21.436 203.887 21.796 203.215 22.516C202.543 23.212 202.207 24.076 202.207 25.108C202.207 26.14 202.531 27.004 203.179 27.7C203.851 28.396 204.715 28.744 205.771 28.744C206.995 28.744 208.039 28.24 208.903 27.232C209.455 26.608 210.019 26.5 210.595 26.908L213.295 28.924C213.943 29.404 214.099 29.944 213.763 30.544Z" fill="#D9D9D9"/>
<path d="M221.698 27.268V33.172C221.698 33.412 221.614 33.616 221.446 33.784C221.302 33.928 221.11 34 220.87 34H216.334C216.094 34 215.89 33.928 215.722 33.784C215.554 33.616 215.47 33.412 215.47 33.172V9.628C215.47 9.388 215.554 9.196 215.722 9.052C215.89 8.884 216.094 8.8 216.334 8.8H220.87C221.11 8.8 221.302 8.884 221.446 9.052C221.614 9.196 221.698 9.388 221.698 9.628V21.976H222.742L225.982 16.828C226.246 16.396 226.654 16.18 227.206 16.18H231.634C232.066 16.18 232.342 16.336 232.462 16.648C232.582 16.96 232.522 17.296 232.282 17.656L228.07 24.136L233.182 32.452C233.422 32.836 233.458 33.196 233.29 33.532C233.146 33.844 232.834 34 232.354 34H227.494C227.014 34 226.642 33.76 226.378 33.28L222.886 27.268H221.698Z" fill="#D9D9D9"/>
</svg>
